<svg xmlns="http://www.w3.org/2000/svg" width="1029" height="447" viewBox="0 0 1029 447" role="img" aria-labelledby="title desc">
  <title id="title">EndlessNet mark</title>
  <desc>EndlessNet infinity-style mark as vector paths on a transparent background.</desc>
  <g>
    <path d="M 75.0 155.0 L 76.0 156.0 L 93.0 156.0 L 94.0 157.0 L 98.0 157.0 L 99.0 158.0 L 101.0 158.0 L 102.0 159.0 L 104.0 159.0 L 108.0 161.0 L 114.0 149.0 L 116.0 147.0 L 117.0 144.0 L 119.0 142.0 L 120.0 139.0 L 125.0 133.0 L 125.0 132.0 L 129.0 128.0 L 129.0 127.0 L 137.0 119.0 L 137.0 118.0 L 139.0 116.0 L 140.0 116.0 L 149.0 107.0 L 150.0 107.0 L 158.0 100.0 L 159.0 100.0 L 170.0 92.0 L 177.0 89.0 L 179.0 87.0 L 185.0 84.0 L 187.0 84.0 L 192.0 81.0 L 194.0 81.0 L 200.0 78.0 L 202.0 78.0 L 206.0 76.0 L 209.0 76.0 L 210.0 75.0 L 212.0 75.0 L 216.0 73.0 L 219.0 73.0 L 220.0 72.0 L 225.0 72.0 L 226.0 71.0 L 230.0 71.0 L 231.0 70.0 L 236.0 70.0 L 237.0 69.0 L 246.0 69.0 L 247.0 68.0 L 276.0 68.0 L 277.0 69.0 L 285.0 69.0 L 286.0 70.0 L 292.0 70.0 L 293.0 71.0 L 298.0 71.0 L 299.0 72.0 L 303.0 72.0 L 304.0 73.0 L 311.0 74.0 L 312.0 75.0 L 314.0 75.0 L 318.0 77.0 L 321.0 77.0 L 324.0 79.0 L 329.0 80.0 L 359.0 95.0 L 361.0 97.0 L 362.0 97.0 L 364.0 99.0 L 365.0 99.0 L 367.0 101.0 L 368.0 101.0 L 370.0 103.0 L 374.0 105.0 L 377.0 108.0 L 378.0 108.0 L 381.0 111.0 L 382.0 111.0 L 386.0 115.0 L 387.0 115.0 L 392.0 120.0 L 393.0 120.0 L 406.0 133.0 L 407.0 133.0 L 411.0 137.0 L 411.0 138.0 L 436.0 163.0 L 436.0 164.0 L 454.0 182.0 L 454.0 183.0 L 469.0 198.0 L 469.0 199.0 L 492.0 223.0 L 473.0 243.0 L 473.0 244.0 L 462.0 255.0 L 462.0 256.0 L 460.0 257.0 L 460.0 258.0 L 449.0 269.0 L 449.0 270.0 L 437.0 282.0 L 436.0 285.0 L 457.0 306.0 L 458.0 306.0 L 461.0 303.0 L 461.0 302.0 L 477.0 286.0 L 477.0 285.0 L 514.0 247.0 L 532.0 266.0 L 532.0 267.0 L 545.0 280.0 L 545.0 281.0 L 558.0 294.0 L 558.0 295.0 L 567.0 304.0 L 567.0 305.0 L 581.0 319.0 L 581.0 320.0 L 599.0 338.0 L 600.0 338.0 L 609.0 347.0 L 610.0 347.0 L 616.0 353.0 L 617.0 353.0 L 621.0 357.0 L 622.0 357.0 L 633.0 366.0 L 634.0 366.0 L 636.0 368.0 L 637.0 368.0 L 648.0 376.0 L 656.0 380.0 L 658.0 382.0 L 676.0 391.0 L 678.0 391.0 L 683.0 394.0 L 688.0 395.0 L 691.0 397.0 L 693.0 397.0 L 694.0 398.0 L 696.0 398.0 L 697.0 399.0 L 699.0 399.0 L 703.0 401.0 L 706.0 401.0 L 707.0 402.0 L 710.0 402.0 L 711.0 403.0 L 714.0 403.0 L 715.0 404.0 L 718.0 404.0 L 719.0 405.0 L 728.0 406.0 L 729.0 407.0 L 735.0 407.0 L 736.0 408.0 L 742.0 408.0 L 743.0 409.0 L 756.0 409.0 L 757.0 410.0 L 781.0 410.0 L 782.0 409.0 L 792.0 409.0 L 793.0 408.0 L 799.0 408.0 L 800.0 407.0 L 806.0 407.0 L 807.0 406.0 L 811.0 406.0 L 812.0 405.0 L 815.0 405.0 L 816.0 404.0 L 823.0 403.0 L 824.0 402.0 L 826.0 402.0 L 827.0 401.0 L 829.0 401.0 L 830.0 400.0 L 835.0 399.0 L 838.0 397.0 L 840.0 397.0 L 846.0 394.0 L 848.0 394.0 L 866.0 385.0 L 868.0 383.0 L 871.0 382.0 L 879.0 376.0 L 882.0 375.0 L 889.0 369.0 L 890.0 369.0 L 896.0 363.0 L 897.0 363.0 L 916.0 344.0 L 916.0 343.0 L 922.0 337.0 L 922.0 336.0 L 925.0 333.0 L 925.0 332.0 L 928.0 329.0 L 928.0 328.0 L 934.0 320.0 L 935.0 317.0 L 937.0 315.0 L 938.0 312.0 L 940.0 310.0 L 947.0 296.0 L 947.0 294.0 L 950.0 289.0 L 949.0 288.0 L 933.0 288.0 L 932.0 287.0 L 925.0 286.0 L 924.0 285.0 L 922.0 285.0 L 921.0 284.0 L 919.0 284.0 L 917.0 283.0 L 910.0 297.0 L 908.0 299.0 L 907.0 302.0 L 905.0 304.0 L 903.0 308.0 L 900.0 311.0 L 900.0 312.0 L 897.0 315.0 L 897.0 316.0 L 892.0 321.0 L 892.0 322.0 L 877.0 337.0 L 876.0 337.0 L 866.0 346.0 L 860.0 349.0 L 858.0 351.0 L 852.0 354.0 L 850.0 356.0 L 836.0 363.0 L 834.0 363.0 L 831.0 365.0 L 826.0 366.0 L 820.0 369.0 L 817.0 369.0 L 813.0 371.0 L 810.0 371.0 L 809.0 372.0 L 806.0 372.0 L 805.0 373.0 L 801.0 373.0 L 800.0 374.0 L 794.0 374.0 L 793.0 375.0 L 785.0 375.0 L 784.0 376.0 L 750.0 376.0 L 749.0 375.0 L 741.0 375.0 L 740.0 374.0 L 734.0 374.0 L 733.0 373.0 L 724.0 372.0 L 723.0 371.0 L 720.0 371.0 L 716.0 369.0 L 713.0 369.0 L 712.0 368.0 L 710.0 368.0 L 709.0 367.0 L 707.0 367.0 L 706.0 366.0 L 701.0 365.0 L 698.0 363.0 L 696.0 363.0 L 693.0 361.0 L 691.0 361.0 L 673.0 352.0 L 671.0 350.0 L 666.0 348.0 L 664.0 346.0 L 663.0 346.0 L 661.0 344.0 L 660.0 344.0 L 658.0 342.0 L 657.0 342.0 L 655.0 340.0 L 651.0 338.0 L 648.0 335.0 L 647.0 335.0 L 644.0 332.0 L 643.0 332.0 L 639.0 328.0 L 638.0 328.0 L 633.0 323.0 L 632.0 323.0 L 622.0 313.0 L 621.0 313.0 L 598.0 290.0 L 598.0 289.0 L 581.0 272.0 L 581.0 271.0 L 567.0 257.0 L 567.0 256.0 L 554.0 243.0 L 554.0 242.0 L 536.0 223.0 L 539.0 220.0 L 539.0 219.0 L 553.0 205.0 L 553.0 204.0 L 569.0 188.0 L 569.0 187.0 L 588.0 168.0 L 588.0 167.0 L 598.0 157.0 L 584.0 143.0 L 584.0 142.0 L 577.0 135.0 L 576.0 135.0 L 544.0 167.0 L 544.0 168.0 L 514.0 199.0 L 492.0 176.0 L 492.0 175.0 L 478.0 161.0 L 478.0 160.0 L 462.0 144.0 L 462.0 143.0 L 445.0 126.0 L 445.0 125.0 L 417.0 97.0 L 416.0 97.0 L 409.0 90.0 L 408.0 90.0 L 405.0 87.0 L 404.0 87.0 L 400.0 83.0 L 399.0 83.0 L 392.0 77.0 L 391.0 77.0 L 389.0 75.0 L 388.0 75.0 L 377.0 67.0 L 372.0 65.0 L 370.0 63.0 L 348.0 52.0 L 346.0 52.0 L 341.0 49.0 L 339.0 49.0 L 338.0 48.0 L 336.0 48.0 L 335.0 47.0 L 333.0 47.0 L 332.0 46.0 L 330.0 46.0 L 329.0 45.0 L 327.0 45.0 L 323.0 43.0 L 320.0 43.0 L 316.0 41.0 L 312.0 41.0 L 311.0 40.0 L 308.0 40.0 L 307.0 39.0 L 303.0 39.0 L 302.0 38.0 L 298.0 38.0 L 297.0 37.0 L 291.0 37.0 L 290.0 36.0 L 283.0 36.0 L 282.0 35.0 L 268.0 35.0 L 267.0 34.0 L 254.0 34.0 L 253.0 35.0 L 240.0 35.0 L 239.0 36.0 L 232.0 36.0 L 231.0 37.0 L 225.0 37.0 L 224.0 38.0 L 220.0 38.0 L 219.0 39.0 L 215.0 39.0 L 214.0 40.0 L 211.0 40.0 L 210.0 41.0 L 203.0 42.0 L 202.0 43.0 L 200.0 43.0 L 199.0 44.0 L 197.0 44.0 L 196.0 45.0 L 194.0 45.0 L 193.0 46.0 L 191.0 46.0 L 190.0 47.0 L 185.0 48.0 L 182.0 50.0 L 180.0 50.0 L 175.0 53.0 L 173.0 53.0 L 161.0 59.0 L 159.0 61.0 L 149.0 66.0 L 147.0 68.0 L 143.0 70.0 L 140.0 73.0 L 136.0 75.0 L 124.0 86.0 L 123.0 86.0 L 109.0 100.0 L 109.0 101.0 L 104.0 106.0 L 104.0 107.0 L 96.0 116.0 L 96.0 117.0 L 92.0 122.0 L 91.0 125.0 L 87.0 130.0 L 78.0 148.0 L 78.0 150.0 Z M 78.0 174.0 L 77.0 175.0 L 72.0 175.0 L 71.0 176.0 L 66.0 177.0 L 58.0 181.0 L 48.0 189.0 L 48.0 190.0 L 45.0 193.0 L 45.0 194.0 L 41.0 199.0 L 40.0 201.0 L 40.0 203.0 L 38.0 206.0 L 38.0 209.0 L 37.0 210.0 L 37.0 214.0 L 36.0 215.0 L 36.0 227.0 L 37.0 228.0 L 37.0 233.0 L 38.0 234.0 L 38.0 237.0 L 44.0 249.0 L 48.0 253.0 L 48.0 254.0 L 56.0 261.0 L 57.0 261.0 L 59.0 263.0 L 65.0 266.0 L 67.0 266.0 L 71.0 268.0 L 75.0 268.0 L 76.0 269.0 L 90.0 269.0 L 91.0 268.0 L 95.0 268.0 L 96.0 267.0 L 98.0 267.0 L 99.0 266.0 L 101.0 266.0 L 105.0 264.0 L 107.0 262.0 L 111.0 260.0 L 119.0 252.0 L 119.0 251.0 L 122.0 248.0 L 126.0 240.0 L 126.0 238.0 L 128.0 234.0 L 128.0 230.0 L 129.0 229.0 L 129.0 214.0 L 128.0 213.0 L 128.0 209.0 L 127.0 208.0 L 126.0 203.0 L 123.0 197.0 L 118.0 191.0 L 118.0 190.0 L 113.0 185.0 L 112.0 185.0 L 106.0 180.0 L 100.0 177.0 L 95.0 176.0 L 94.0 175.0 L 91.0 175.0 L 90.0 174.0 Z M 954.0 175.0 L 946.0 175.0 L 945.0 174.0 L 943.0 175.0 L 937.0 175.0 L 936.0 176.0 L 933.0 176.0 L 932.0 177.0 L 927.0 178.0 L 921.0 181.0 L 919.0 183.0 L 918.0 183.0 L 910.0 190.0 L 910.0 191.0 L 905.0 197.0 L 901.0 205.0 L 901.0 207.0 L 900.0 208.0 L 900.0 211.0 L 899.0 212.0 L 899.0 217.0 L 898.0 218.0 L 898.0 226.0 L 899.0 227.0 L 899.0 233.0 L 900.0 234.0 L 900.0 237.0 L 901.0 238.0 L 901.0 240.0 L 903.0 244.0 L 905.0 246.0 L 906.0 249.0 L 908.0 251.0 L 908.0 252.0 L 916.0 260.0 L 917.0 260.0 L 920.0 263.0 L 928.0 267.0 L 930.0 267.0 L 931.0 268.0 L 934.0 268.0 L 935.0 269.0 L 953.0 269.0 L 954.0 268.0 L 958.0 268.0 L 959.0 267.0 L 961.0 267.0 L 971.0 262.0 L 975.0 258.0 L 976.0 258.0 L 984.0 249.0 L 989.0 239.0 L 989.0 237.0 L 990.0 236.0 L 990.0 233.0 L 991.0 232.0 L 991.0 227.0 L 992.0 226.0 L 992.0 218.0 L 991.0 217.0 L 991.0 212.0 L 990.0 211.0 L 990.0 208.0 L 989.0 207.0 L 989.0 205.0 L 985.0 197.0 L 983.0 195.0 L 983.0 194.0 L 973.0 184.0 L 972.0 184.0 L 969.0 181.0 L 963.0 178.0 L 961.0 178.0 L 958.0 176.0 L 955.0 176.0 Z M 76.0 288.0 L 77.0 290.0 L 77.0 292.0 L 78.0 293.0 L 78.0 295.0 L 81.0 300.0 L 81.0 302.0 L 87.0 314.0 L 91.0 319.0 L 92.0 322.0 L 94.0 324.0 L 94.0 325.0 L 96.0 327.0 L 98.0 331.0 L 105.0 339.0 L 105.0 340.0 L 116.0 351.0 L 116.0 352.0 L 119.0 355.0 L 120.0 355.0 L 128.0 363.0 L 129.0 363.0 L 136.0 369.0 L 137.0 369.0 L 139.0 371.0 L 140.0 371.0 L 151.0 379.0 L 167.0 387.0 L 169.0 387.0 L 174.0 390.0 L 176.0 390.0 L 179.0 392.0 L 181.0 392.0 L 182.0 393.0 L 184.0 393.0 L 185.0 394.0 L 187.0 394.0 L 191.0 396.0 L 198.0 397.0 L 202.0 399.0 L 206.0 399.0 L 207.0 400.0 L 211.0 400.0 L 212.0 401.0 L 216.0 401.0 L 217.0 402.0 L 222.0 402.0 L 222.0 399.0 L 223.0 398.0 L 223.0 392.0 L 224.0 391.0 L 224.0 385.0 L 225.0 384.0 L 225.0 377.0 L 226.0 376.0 L 226.0 371.0 L 225.0 370.0 L 220.0 370.0 L 219.0 369.0 L 216.0 369.0 L 215.0 368.0 L 208.0 367.0 L 204.0 365.0 L 201.0 365.0 L 200.0 364.0 L 198.0 364.0 L 197.0 363.0 L 192.0 362.0 L 184.0 358.0 L 182.0 358.0 L 170.0 352.0 L 168.0 350.0 L 165.0 349.0 L 163.0 347.0 L 159.0 345.0 L 156.0 342.0 L 152.0 340.0 L 148.0 336.0 L 147.0 336.0 L 131.0 320.0 L 131.0 319.0 L 126.0 314.0 L 126.0 313.0 L 123.0 310.0 L 123.0 309.0 L 117.0 301.0 L 108.0 283.0 L 106.0 284.0 L 104.0 284.0 L 103.0 285.0 L 101.0 285.0 L 100.0 286.0 L 97.0 286.0 L 96.0 287.0 L 92.0 287.0 L 91.0 288.0 Z M 815.0 41.0 L 815.0 43.0 L 814.0 44.0 L 814.0 50.0 L 813.0 51.0 L 813.0 57.0 L 812.0 58.0 L 812.0 64.0 L 811.0 65.0 L 811.0 70.0 L 810.0 71.0 L 812.0 73.0 L 816.0 73.0 L 817.0 74.0 L 820.0 74.0 L 821.0 75.0 L 825.0 75.0 L 826.0 76.0 L 829.0 76.0 L 830.0 77.0 L 835.0 78.0 L 838.0 80.0 L 843.0 81.0 L 846.0 83.0 L 848.0 83.0 L 860.0 89.0 L 862.0 91.0 L 868.0 94.0 L 870.0 96.0 L 874.0 98.0 L 877.0 101.0 L 878.0 101.0 L 895.0 117.0 L 895.0 118.0 L 900.0 123.0 L 900.0 124.0 L 906.0 131.0 L 907.0 134.0 L 911.0 139.0 L 917.0 151.0 L 917.0 153.0 L 919.0 156.0 L 919.0 158.0 L 921.0 161.0 L 923.0 160.0 L 925.0 160.0 L 926.0 159.0 L 928.0 159.0 L 929.0 158.0 L 932.0 158.0 L 933.0 157.0 L 938.0 157.0 L 939.0 156.0 L 953.0 156.0 L 952.0 154.0 L 952.0 152.0 L 950.0 149.0 L 949.0 144.0 L 947.0 141.0 L 947.0 139.0 L 944.0 134.0 L 944.0 132.0 L 940.0 124.0 L 938.0 122.0 L 937.0 119.0 L 935.0 117.0 L 934.0 114.0 L 929.0 108.0 L 929.0 107.0 L 926.0 104.0 L 926.0 103.0 L 923.0 100.0 L 923.0 99.0 L 903.0 79.0 L 902.0 79.0 L 897.0 74.0 L 893.0 72.0 L 887.0 67.0 L 884.0 66.0 L 882.0 64.0 L 879.0 63.0 L 877.0 61.0 L 861.0 53.0 L 859.0 53.0 L 856.0 51.0 L 854.0 51.0 L 853.0 50.0 L 851.0 50.0 L 850.0 49.0 L 848.0 49.0 L 847.0 48.0 L 845.0 48.0 L 844.0 47.0 L 842.0 47.0 L 838.0 45.0 L 835.0 45.0 L 834.0 44.0 L 831.0 44.0 L 830.0 43.0 L 826.0 43.0 L 825.0 42.0 L 820.0 42.0 L 819.0 41.0 Z M 80.0 195.0 L 85.0 195.0 L 86.0 196.0 L 90.0 196.0 L 98.0 200.0 L 103.0 205.0 L 103.0 206.0 L 107.0 211.0 L 107.0 213.0 L 109.0 217.0 L 109.0 225.0 L 108.0 226.0 L 108.0 230.0 L 105.0 236.0 L 98.0 243.0 L 97.0 243.0 L 95.0 245.0 L 93.0 246.0 L 91.0 246.0 L 90.0 247.0 L 87.0 247.0 L 86.0 248.0 L 79.0 248.0 L 78.0 247.0 L 75.0 247.0 L 69.0 244.0 L 67.0 242.0 L 66.0 242.0 L 60.0 235.0 L 58.0 231.0 L 58.0 228.0 L 57.0 227.0 L 57.0 216.0 L 63.0 204.0 L 69.0 199.0 L 73.0 197.0 L 75.0 197.0 L 76.0 196.0 L 79.0 196.0 Z M 939.0 196.0 L 950.0 196.0 L 951.0 197.0 L 956.0 198.0 L 958.0 200.0 L 959.0 200.0 L 967.0 208.0 L 970.0 214.0 L 970.0 217.0 L 971.0 218.0 L 971.0 226.0 L 970.0 227.0 L 970.0 230.0 L 967.0 236.0 L 965.0 238.0 L 965.0 239.0 L 959.0 244.0 L 953.0 247.0 L 950.0 247.0 L 949.0 248.0 L 940.0 248.0 L 939.0 247.0 L 936.0 247.0 L 930.0 244.0 L 923.0 237.0 L 920.0 231.0 L 920.0 229.0 L 919.0 228.0 L 919.0 216.0 L 920.0 215.0 L 920.0 213.0 L 922.0 209.0 L 924.0 207.0 L 924.0 206.0 L 929.0 201.0 Z M 703.0 52.0 L 701.0 53.0 L 699.0 53.0 L 698.0 54.0 L 696.0 54.0 L 693.0 56.0 L 691.0 56.0 L 683.0 60.0 L 681.0 60.0 L 665.0 68.0 L 665.0 70.0 L 678.0 95.0 L 686.0 91.0 L 688.0 91.0 L 693.0 88.0 L 695.0 88.0 L 700.0 85.0 L 702.0 85.0 L 703.0 84.0 L 705.0 84.0 L 708.0 82.0 L 710.0 82.0 L 712.0 81.0 L 712.0 79.0 L 711.0 78.0 L 711.0 75.0 L 710.0 74.0 L 710.0 72.0 L 709.0 71.0 L 709.0 69.0 L 708.0 68.0 L 708.0 66.0 L 707.0 65.0 L 707.0 63.0 L 706.0 62.0 L 706.0 60.0 L 705.0 59.0 L 705.0 57.0 L 704.0 56.0 L 704.0 54.0 Z M 780.0 39.0 L 764.0 39.0 L 763.0 40.0 L 754.0 40.0 L 753.0 41.0 L 746.0 41.0 L 745.0 42.0 L 740.0 42.0 L 739.0 43.0 L 739.0 46.0 L 740.0 47.0 L 740.0 53.0 L 741.0 54.0 L 741.0 60.0 L 742.0 61.0 L 742.0 66.0 L 743.0 67.0 L 743.0 72.0 L 744.0 73.0 L 746.0 73.0 L 747.0 72.0 L 753.0 72.0 L 754.0 71.0 L 762.0 71.0 L 763.0 70.0 L 779.0 70.0 L 779.0 66.0 L 780.0 65.0 Z M 292.0 370.0 L 289.0 370.0 L 288.0 371.0 L 283.0 371.0 L 282.0 372.0 L 273.0 372.0 L 272.0 373.0 L 257.0 373.0 L 256.0 374.0 L 256.0 390.0 L 257.0 391.0 L 257.0 404.0 L 274.0 404.0 L 275.0 403.0 L 282.0 403.0 L 283.0 402.0 L 289.0 402.0 L 290.0 401.0 L 295.0 401.0 L 297.0 400.0 L 297.0 396.0 L 296.0 395.0 L 296.0 391.0 L 295.0 390.0 L 295.0 385.0 L 294.0 384.0 L 294.0 379.0 L 293.0 378.0 L 293.0 373.0 L 292.0 372.0 Z M 357.0 348.0 L 355.0 348.0 L 337.0 357.0 L 335.0 357.0 L 332.0 359.0 L 330.0 359.0 L 329.0 360.0 L 327.0 360.0 L 323.0 362.0 L 324.0 364.0 L 324.0 366.0 L 326.0 369.0 L 326.0 372.0 L 327.0 373.0 L 327.0 375.0 L 328.0 376.0 L 328.0 378.0 L 329.0 379.0 L 329.0 381.0 L 330.0 382.0 L 330.0 384.0 L 331.0 385.0 L 332.0 390.0 L 335.0 390.0 L 336.0 389.0 L 341.0 388.0 L 346.0 385.0 L 348.0 385.0 L 351.0 383.0 L 353.0 383.0 L 370.0 374.0 L 370.0 372.0 L 368.0 368.0 L 366.0 366.0 L 365.0 364.0 L 365.0 362.0 L 363.0 358.0 L 361.0 356.0 Z M 633.0 87.0 L 632.0 87.0 L 630.0 89.0 L 626.0 91.0 L 623.0 94.0 L 622.0 94.0 L 601.0 112.0 L 604.0 115.0 L 604.0 116.0 L 611.0 123.0 L 611.0 124.0 L 619.0 132.0 L 620.0 134.0 L 622.0 134.0 L 628.0 128.0 L 629.0 128.0 L 633.0 124.0 L 634.0 124.0 L 638.0 120.0 L 639.0 120.0 L 642.0 117.0 L 643.0 117.0 L 649.0 112.0 L 649.0 110.0 L 647.0 108.0 L 647.0 107.0 L 645.0 105.0 L 645.0 104.0 L 643.0 102.0 L 643.0 101.0 L 641.0 99.0 L 641.0 98.0 Z M 413.0 308.0 L 412.0 308.0 L 409.0 311.0 L 408.0 311.0 L 402.0 317.0 L 401.0 317.0 L 397.0 321.0 L 396.0 321.0 L 392.0 325.0 L 391.0 325.0 L 384.0 331.0 L 386.0 333.0 L 388.0 337.0 L 391.0 340.0 L 391.0 341.0 L 393.0 343.0 L 393.0 344.0 L 401.0 355.0 L 405.0 353.0 L 408.0 350.0 L 409.0 350.0 L 412.0 347.0 L 413.0 347.0 L 417.0 343.0 L 418.0 343.0 L 432.0 330.0 L 432.0 329.0 L 424.0 321.0 L 424.0 320.0 L 415.0 311.0 L 415.0 310.0 Z" fill="#000000" fill-rule="evenodd"/>
  </g>
</svg>
