<svg xmlns="http://www.w3.org/2000/svg" width="1180" height="240" viewBox="0 0 1180 240" role="img" aria-labelledby="title desc">
  <title id="title">EndlessNet horizontal logo — black</title>
  <desc id="desc">EndlessNet private networking logo</desc>

<defs>
  <mask id="h-black-underpass" maskUnits="userSpaceOnUse" x="0" y="0" width="420" height="200">
    <rect x="0" y="0" width="420" height="200" fill="white"/>
    <path d="M108 20 C157 20 184 69 210 100 C236 131 263 180 312 180"
          fill="none" stroke="black" stroke-width="38" stroke-linecap="round" stroke-linejoin="round"/>
  </mask>
</defs>
<g transform="translate(20 20) scale(0.90)">
<g>
  <path d="M22 100 C22 50 62 20 108 20 C157 20 184 69 210 100 C236 131 263 180 312 180 C358 180 398 150 398 100 C398 50 358 20 312 20 C263 20 236 69 210 100 C184 131 157 180 108 180 C62 180 22 150 22 100"
        fill="none" stroke="#07111D" stroke-width="28" stroke-linecap="round" stroke-linejoin="round"
        mask="url(#h-black-underpass)"/>
  <path d="M108 20 C157 20 184 69 210 100 C236 131 263 180 312 180"
        fill="none" stroke="#07111D" stroke-width="28" stroke-linecap="round" stroke-linejoin="round"/>
  <g fill="none" stroke="#07111D" stroke-width="5.5" stroke-linecap="round" stroke-linejoin="round">
    <path d="M34 100 H74 L104 126 H148"/>
    <circle cx="74" cy="100" r="10"/>
    <circle cx="104" cy="126" r="9"/>
    <path d="M258 126 H286 L316 100 H386"/>
    <circle cx="286" cy="126" r="9"/>
    <circle cx="316" cy="100" r="10"/>
  </g>
  <path d="M149 115 L161 126 L149 137 L137 126 Z" fill="#07111D"/>
</g>
</g>
<text x="425" y="158" font-family="Inter Display, Inter, Arial, sans-serif" font-size="112" font-weight="500" letter-spacing="-3"><tspan fill="#081321">Endless</tspan><tspan fill="#081321">Net</tspan></text>
</svg>
