<svg xmlns="http://www.w3.org/2000/svg" viewBox="0 0 420 200">
<defs>
  <mask id="pin-underpass" maskUnits="userSpaceOnUse" x="0" y="0" width="420" height="200">
    <rect width="420" height="200" fill="white"/>
    <path d="M108 20 C157 20 184 69 210 100 C236 131 263 180 312 180" fill="none" stroke="black" stroke-width="38" stroke-linecap="round"/>
  </mask>
</defs>
<path d="M22 100 C22 50 62 20 108 20 C157 20 184 69 210 100 C236 131 263 180 312 180 C358 180 398 150 398 100 C398 50 358 20 312 20 C263 20 236 69 210 100 C184 131 157 180 108 180 C62 180 22 150 22 100"
      fill="none" stroke="#000" stroke-width="28" stroke-linecap="round" stroke-linejoin="round" mask="url(#pin-underpass)"/>
<path d="M108 20 C157 20 184 69 210 100 C236 131 263 180 312 180" fill="none" stroke="#000" stroke-width="28" stroke-linecap="round" stroke-linejoin="round"/>
</svg>
