<?xml version="1.0" encoding="UTF-8" standalone="no"?>
<svg
   width="760"
   height="170"
   viewBox="0 0 760 170"
   role="img"
   aria-labelledby="title desc"
   version="1.1"
   id="svg2"
   xmlns="http://www.w3.org/2000/svg"
   xmlns:svg="http://www.w3.org/2000/svg">
  <defs
     id="defs2" />
  <title
     id="title">EndlessNet wordmark — white</title>
  <desc
     id="desc">EndlessNet private networking logo</desc>
  <g
     id="text2"
     style="font-weight:500;font-size:112px;font-family:'Inter Display', Inter, Arial, sans-serif;letter-spacing:-3"
     aria-label="EndlessNet">
    <path
       style="fill:#ffffff"
       d="M 19.4375,120 H 74.234375 V 109.33594 H 31.578125 V 83.742187 H 71.0625 V 73.1875 H 31.578125 V 49.179687 h 42.65625 V 38.515625 H 19.4375 Z M 93,86.75 c 0,-10.71875 6.070312,-15.3125 13.94531,-15.3125 7.98438,0 12.63282,4.757812 12.63282,14 V 120 h 11.53906 V 84.015625 c 0,-15.09375 -9.02344,-22.914063 -20.89063,-22.914063 -7.60156,0 -13.50781,3.28125 -17.44531,9.84375 V 62.25 H 81.460937 V 120 H 93 Z m 70.33594,34.39844 c 7.54687,0 14,-3.22656 17.88281,-9.95313 h 0.10937 V 120 h 11.32032 V 38.515625 H 181.10937 V 70.617187 H 181 c -3.71875,-6.398437 -10.22656,-9.515625 -17.71875,-9.515625 -14.92969,0 -24.99219,12.195313 -24.99219,30.023438 0,17.88281 10.00781,30.02344 25.04688,30.02344 z m 2.35156,-9.95313 c -9.29688,0 -15.69531,-7.05468 -15.69531,-20.07031 0,-13.070313 6.39843,-20.125 15.69531,-20.125 9.84375,0 16.1875,7.984375 16.1875,20.125 0,12.14063 -6.34375,20.07031 -16.1875,20.07031 z M 214.20312,38.515625 H 202.66406 V 120 h 11.53906 z m 34.67969,82.796875 c 13.07031,0 23.35156,-7.71094 25.48438,-18.86719 h -11.10157 c -1.64062,5.46875 -6.67187,9.24219 -14.21875,9.24219 -10.11718,0 -15.91406,-7.05469 -16.29687,-17.445313 h 42.49219 V 91.125 c 0,-17.828125 -10.60938,-30.1875 -26.96094,-30.1875 -15.75,0 -26.90625,12.6875 -26.90625,30.296875 0,17.445315 10.39062,30.078125 27.50781,30.078125 z M 232.85937,85.492187 c 0.98438,-9.1875 6.83594,-14.929687 15.53125,-14.929687 8.75,0 14.65625,5.742187 15.58594,14.929687 z m 70.71875,35.875003 c 13.45313,0 23.29688,-6.78125 23.29688,-17.77344 0,-8.367188 -5.14063,-13.398438 -16.40625,-15.914063 l -9.84375,-2.1875 c -5.19531,-1.203125 -8.3125,-3.554687 -8.3125,-7.4375 0,-4.429687 4.15625,-7.929687 10.71875,-7.929687 6.83594,0 11.32031,4.101562 11.42969,9.734375 h 11.04687 c -0.32812,-11.648438 -9.625,-18.867188 -22.64062,-18.867188 -13.23438,0 -22.09375,7.054688 -22.09375,17.28125 0,8.585938 5.6875,14.109375 16.57031,16.515625 l 9.57031,2.132813 c 4.97656,1.09375 8.3125,3.390625 8.3125,7.328125 0,4.59375 -4.53906,7.92969 -11.86719,7.92969 -7.49218,0 -11.86718,-3.5 -12.52343,-9.73438 h -11.375 c 0.82031,12.52344 10.88281,18.92188 24.11718,18.92188 z m 51.85157,0 c 13.45312,0 23.29687,-6.78125 23.29687,-17.77344 0,-8.367188 -5.14062,-13.398438 -16.40625,-15.914063 l -9.84375,-2.1875 c -5.19531,-1.203125 -8.3125,-3.554687 -8.3125,-7.4375 0,-4.429687 4.15625,-7.929687 10.71875,-7.929687 6.83594,0 11.32031,4.101562 11.42969,9.734375 h 11.04687 c -0.32812,-11.648438 -9.625,-18.867188 -22.64062,-18.867188 -13.23438,0 -22.09375,7.054688 -22.09375,17.28125 0,8.585938 5.6875,14.109375 16.57031,16.515625 l 9.57031,2.132813 c 4.97657,1.09375 8.3125,3.390625 8.3125,7.328125 0,4.59375 -4.53906,7.92969 -11.86718,7.92969 -7.49219,0 -11.86719,-3.5 -12.52344,-9.73438 h -11.375 c 0.82031,12.52344 10.88281,18.92188 24.11719,18.92188 z"
       id="path2" />
    <path
       style="fill:#ffffff"
       d="m 386.82812,120 h 12.14063 V 75.921875 c 0,-3.609375 -0.0547,-10.664063 -0.4375,-20.234375 5.41406,9.296875 9.84375,16.679687 12.14062,20.289062 L 438.50781,120 h 13.5625 V 38.515625 H 439.875 v 48.507812 c 0,2.953125 0.10937,9.898438 0.32812,15.804693 -3.28125,-5.79688 -6.89062,-11.976568 -8.80468,-15.039068 L 400.28125,38.515625 h -13.45313 z m 100.79688,1.3125 c 13.07031,0 23.35156,-7.71094 25.48437,-18.86719 h -11.10156 c -1.64062,5.46875 -6.67187,9.24219 -14.21875,9.24219 -10.11719,0 -15.91406,-7.05469 -16.29687,-17.445313 h 42.49218 V 91.125 c 0,-17.828125 -10.60937,-30.1875 -26.96093,-30.1875 -15.75,0 -26.90625,12.6875 -26.90625,30.296875 0,17.445315 10.39062,30.078125 27.50781,30.078125 z M 471.60156,85.492187 c 0.98438,-9.1875 6.83594,-14.929687 15.53125,-14.929687 8.75,0 14.65625,5.742187 15.58594,14.929687 z M 548.77344,62.25 H 537.07031 V 46.5 h -11.59375 v 15.75 h -10.17187 v 9.515625 h 10.17187 V 106.21875 C 525.47656,115.51563 530.67187,120 541.5,120 h 7.27344 v -9.51562 h -5.63282 c -4.59375,0 -6.07031,-1.47657 -6.07031,-5.74219 V 71.765625 h 11.70313 z"
       id="path3" />
  </g>
</svg>
