<svg xmlns="http://www.w3.org/2000/svg" width="1047" height="661" viewBox="0 0 1047 661" role="img" aria-labelledby="title desc">
  <title id="title">EndlessNet logo</title>
  <desc>Full EndlessNet logo as vector paths on a transparent background.</desc>
  <g>
    <path d="M 77.0 157.0 L 78.0 158.0 L 95.0 158.0 L 96.0 159.0 L 100.0 159.0 L 101.0 160.0 L 103.0 160.0 L 104.0 161.0 L 106.0 161.0 L 110.0 163.0 L 116.0 151.0 L 118.0 149.0 L 119.0 146.0 L 121.0 144.0 L 122.0 141.0 L 127.0 135.0 L 127.0 134.0 L 131.0 130.0 L 131.0 129.0 L 139.0 121.0 L 139.0 120.0 L 141.0 118.0 L 142.0 118.0 L 151.0 109.0 L 152.0 109.0 L 160.0 102.0 L 161.0 102.0 L 172.0 94.0 L 179.0 91.0 L 181.0 89.0 L 187.0 86.0 L 189.0 86.0 L 194.0 83.0 L 196.0 83.0 L 202.0 80.0 L 204.0 80.0 L 208.0 78.0 L 211.0 78.0 L 212.0 77.0 L 214.0 77.0 L 218.0 75.0 L 221.0 75.0 L 222.0 74.0 L 227.0 74.0 L 228.0 73.0 L 232.0 73.0 L 233.0 72.0 L 238.0 72.0 L 239.0 71.0 L 248.0 71.0 L 249.0 70.0 L 278.0 70.0 L 279.0 71.0 L 287.0 71.0 L 288.0 72.0 L 294.0 72.0 L 295.0 73.0 L 300.0 73.0 L 301.0 74.0 L 305.0 74.0 L 306.0 75.0 L 313.0 76.0 L 314.0 77.0 L 316.0 77.0 L 320.0 79.0 L 323.0 79.0 L 326.0 81.0 L 331.0 82.0 L 361.0 97.0 L 363.0 99.0 L 364.0 99.0 L 366.0 101.0 L 367.0 101.0 L 369.0 103.0 L 370.0 103.0 L 372.0 105.0 L 376.0 107.0 L 379.0 110.0 L 380.0 110.0 L 383.0 113.0 L 384.0 113.0 L 388.0 117.0 L 389.0 117.0 L 394.0 122.0 L 395.0 122.0 L 408.0 135.0 L 409.0 135.0 L 413.0 139.0 L 413.0 140.0 L 438.0 165.0 L 438.0 166.0 L 456.0 184.0 L 456.0 185.0 L 471.0 200.0 L 471.0 201.0 L 494.0 225.0 L 475.0 245.0 L 475.0 246.0 L 464.0 257.0 L 464.0 258.0 L 462.0 259.0 L 462.0 260.0 L 451.0 271.0 L 451.0 272.0 L 439.0 284.0 L 438.0 287.0 L 459.0 308.0 L 460.0 308.0 L 463.0 305.0 L 463.0 304.0 L 479.0 288.0 L 479.0 287.0 L 516.0 249.0 L 534.0 268.0 L 534.0 269.0 L 547.0 282.0 L 547.0 283.0 L 560.0 296.0 L 560.0 297.0 L 569.0 306.0 L 569.0 307.0 L 583.0 321.0 L 583.0 322.0 L 601.0 340.0 L 602.0 340.0 L 611.0 349.0 L 612.0 349.0 L 618.0 355.0 L 619.0 355.0 L 623.0 359.0 L 624.0 359.0 L 635.0 368.0 L 636.0 368.0 L 638.0 370.0 L 639.0 370.0 L 650.0 378.0 L 658.0 382.0 L 660.0 384.0 L 678.0 393.0 L 680.0 393.0 L 685.0 396.0 L 690.0 397.0 L 693.0 399.0 L 695.0 399.0 L 696.0 400.0 L 698.0 400.0 L 699.0 401.0 L 701.0 401.0 L 705.0 403.0 L 708.0 403.0 L 709.0 404.0 L 712.0 404.0 L 713.0 405.0 L 716.0 405.0 L 717.0 406.0 L 720.0 406.0 L 721.0 407.0 L 730.0 408.0 L 731.0 409.0 L 737.0 409.0 L 738.0 410.0 L 744.0 410.0 L 745.0 411.0 L 758.0 411.0 L 759.0 412.0 L 783.0 412.0 L 784.0 411.0 L 794.0 411.0 L 795.0 410.0 L 801.0 410.0 L 802.0 409.0 L 808.0 409.0 L 809.0 408.0 L 813.0 408.0 L 814.0 407.0 L 817.0 407.0 L 818.0 406.0 L 825.0 405.0 L 826.0 404.0 L 828.0 404.0 L 829.0 403.0 L 831.0 403.0 L 832.0 402.0 L 837.0 401.0 L 840.0 399.0 L 842.0 399.0 L 848.0 396.0 L 850.0 396.0 L 868.0 387.0 L 870.0 385.0 L 873.0 384.0 L 881.0 378.0 L 884.0 377.0 L 891.0 371.0 L 892.0 371.0 L 898.0 365.0 L 899.0 365.0 L 918.0 346.0 L 918.0 345.0 L 924.0 339.0 L 924.0 338.0 L 927.0 335.0 L 927.0 334.0 L 930.0 331.0 L 930.0 330.0 L 936.0 322.0 L 937.0 319.0 L 939.0 317.0 L 940.0 314.0 L 942.0 312.0 L 949.0 298.0 L 949.0 296.0 L 952.0 291.0 L 951.0 290.0 L 935.0 290.0 L 934.0 289.0 L 927.0 288.0 L 926.0 287.0 L 924.0 287.0 L 923.0 286.0 L 921.0 286.0 L 919.0 285.0 L 912.0 299.0 L 910.0 301.0 L 909.0 304.0 L 907.0 306.0 L 905.0 310.0 L 902.0 313.0 L 902.0 314.0 L 899.0 317.0 L 899.0 318.0 L 894.0 323.0 L 894.0 324.0 L 879.0 339.0 L 878.0 339.0 L 868.0 348.0 L 862.0 351.0 L 860.0 353.0 L 854.0 356.0 L 852.0 358.0 L 838.0 365.0 L 836.0 365.0 L 833.0 367.0 L 828.0 368.0 L 822.0 371.0 L 819.0 371.0 L 815.0 373.0 L 812.0 373.0 L 811.0 374.0 L 808.0 374.0 L 807.0 375.0 L 803.0 375.0 L 802.0 376.0 L 796.0 376.0 L 795.0 377.0 L 787.0 377.0 L 786.0 378.0 L 752.0 378.0 L 751.0 377.0 L 743.0 377.0 L 742.0 376.0 L 736.0 376.0 L 735.0 375.0 L 726.0 374.0 L 725.0 373.0 L 722.0 373.0 L 718.0 371.0 L 715.0 371.0 L 714.0 370.0 L 712.0 370.0 L 711.0 369.0 L 709.0 369.0 L 708.0 368.0 L 703.0 367.0 L 700.0 365.0 L 698.0 365.0 L 695.0 363.0 L 693.0 363.0 L 675.0 354.0 L 673.0 352.0 L 668.0 350.0 L 666.0 348.0 L 665.0 348.0 L 663.0 346.0 L 662.0 346.0 L 660.0 344.0 L 659.0 344.0 L 657.0 342.0 L 653.0 340.0 L 650.0 337.0 L 649.0 337.0 L 646.0 334.0 L 645.0 334.0 L 641.0 330.0 L 640.0 330.0 L 635.0 325.0 L 634.0 325.0 L 624.0 315.0 L 623.0 315.0 L 600.0 292.0 L 600.0 291.0 L 583.0 274.0 L 583.0 273.0 L 569.0 259.0 L 569.0 258.0 L 556.0 245.0 L 556.0 244.0 L 538.0 225.0 L 541.0 222.0 L 541.0 221.0 L 555.0 207.0 L 555.0 206.0 L 571.0 190.0 L 571.0 189.0 L 590.0 170.0 L 590.0 169.0 L 600.0 159.0 L 586.0 145.0 L 586.0 144.0 L 579.0 137.0 L 578.0 137.0 L 546.0 169.0 L 546.0 170.0 L 516.0 201.0 L 494.0 178.0 L 494.0 177.0 L 480.0 163.0 L 480.0 162.0 L 464.0 146.0 L 464.0 145.0 L 447.0 128.0 L 447.0 127.0 L 419.0 99.0 L 418.0 99.0 L 411.0 92.0 L 410.0 92.0 L 407.0 89.0 L 406.0 89.0 L 402.0 85.0 L 401.0 85.0 L 394.0 79.0 L 393.0 79.0 L 391.0 77.0 L 390.0 77.0 L 379.0 69.0 L 374.0 67.0 L 372.0 65.0 L 350.0 54.0 L 348.0 54.0 L 343.0 51.0 L 341.0 51.0 L 340.0 50.0 L 338.0 50.0 L 337.0 49.0 L 335.0 49.0 L 334.0 48.0 L 332.0 48.0 L 331.0 47.0 L 329.0 47.0 L 325.0 45.0 L 322.0 45.0 L 318.0 43.0 L 314.0 43.0 L 313.0 42.0 L 310.0 42.0 L 309.0 41.0 L 305.0 41.0 L 304.0 40.0 L 300.0 40.0 L 299.0 39.0 L 293.0 39.0 L 292.0 38.0 L 285.0 38.0 L 284.0 37.0 L 270.0 37.0 L 269.0 36.0 L 256.0 36.0 L 255.0 37.0 L 242.0 37.0 L 241.0 38.0 L 234.0 38.0 L 233.0 39.0 L 227.0 39.0 L 226.0 40.0 L 222.0 40.0 L 221.0 41.0 L 217.0 41.0 L 216.0 42.0 L 213.0 42.0 L 212.0 43.0 L 205.0 44.0 L 204.0 45.0 L 202.0 45.0 L 201.0 46.0 L 199.0 46.0 L 198.0 47.0 L 196.0 47.0 L 195.0 48.0 L 193.0 48.0 L 192.0 49.0 L 187.0 50.0 L 184.0 52.0 L 182.0 52.0 L 177.0 55.0 L 175.0 55.0 L 163.0 61.0 L 161.0 63.0 L 151.0 68.0 L 149.0 70.0 L 145.0 72.0 L 142.0 75.0 L 138.0 77.0 L 126.0 88.0 L 125.0 88.0 L 111.0 102.0 L 111.0 103.0 L 106.0 108.0 L 106.0 109.0 L 98.0 118.0 L 98.0 119.0 L 94.0 124.0 L 93.0 127.0 L 89.0 132.0 L 80.0 150.0 L 80.0 152.0 Z M 357.0 487.0 L 332.0 487.0 L 332.0 537.0 L 331.0 538.0 L 325.0 532.0 L 324.0 532.0 L 322.0 530.0 L 318.0 528.0 L 316.0 528.0 L 312.0 526.0 L 307.0 526.0 L 306.0 525.0 L 297.0 525.0 L 296.0 526.0 L 292.0 526.0 L 291.0 527.0 L 289.0 527.0 L 288.0 528.0 L 286.0 528.0 L 285.0 529.0 L 283.0 529.0 L 281.0 530.0 L 279.0 532.0 L 275.0 534.0 L 269.0 540.0 L 269.0 541.0 L 264.0 547.0 L 261.0 553.0 L 261.0 555.0 L 260.0 556.0 L 260.0 559.0 L 259.0 560.0 L 259.0 564.0 L 258.0 565.0 L 258.0 582.0 L 259.0 583.0 L 259.0 587.0 L 260.0 588.0 L 260.0 591.0 L 262.0 594.0 L 262.0 596.0 L 264.0 600.0 L 266.0 602.0 L 266.0 603.0 L 269.0 606.0 L 269.0 607.0 L 276.0 614.0 L 277.0 614.0 L 279.0 616.0 L 287.0 620.0 L 290.0 620.0 L 291.0 621.0 L 294.0 621.0 L 295.0 622.0 L 309.0 622.0 L 310.0 621.0 L 313.0 621.0 L 314.0 620.0 L 316.0 620.0 L 324.0 616.0 L 331.0 609.0 L 332.0 610.0 L 332.0 619.0 L 333.0 620.0 L 357.0 620.0 Z M 716.0 489.0 L 715.0 490.0 L 715.0 620.0 L 740.0 620.0 L 740.0 536.0 L 741.0 535.0 L 740.0 532.0 L 741.0 531.0 L 743.0 533.0 L 743.0 534.0 L 745.0 536.0 L 745.0 537.0 L 747.0 539.0 L 747.0 540.0 L 749.0 542.0 L 749.0 543.0 L 751.0 545.0 L 753.0 549.0 L 756.0 552.0 L 756.0 553.0 L 758.0 555.0 L 758.0 556.0 L 760.0 558.0 L 760.0 559.0 L 762.0 561.0 L 764.0 565.0 L 767.0 568.0 L 767.0 569.0 L 769.0 571.0 L 769.0 572.0 L 771.0 574.0 L 771.0 575.0 L 773.0 577.0 L 775.0 581.0 L 778.0 584.0 L 778.0 585.0 L 780.0 587.0 L 782.0 591.0 L 785.0 594.0 L 785.0 595.0 L 787.0 597.0 L 787.0 598.0 L 789.0 600.0 L 791.0 604.0 L 794.0 607.0 L 794.0 608.0 L 796.0 610.0 L 796.0 611.0 L 798.0 613.0 L 800.0 617.0 L 803.0 620.0 L 828.0 620.0 L 828.0 489.0 L 804.0 489.0 L 803.0 490.0 L 803.0 573.0 L 802.0 574.0 L 799.0 570.0 L 799.0 569.0 L 796.0 566.0 L 794.0 562.0 L 791.0 559.0 L 791.0 558.0 L 789.0 556.0 L 789.0 555.0 L 787.0 553.0 L 785.0 549.0 L 782.0 546.0 L 782.0 545.0 L 780.0 543.0 L 780.0 542.0 L 778.0 540.0 L 776.0 536.0 L 773.0 533.0 L 773.0 532.0 L 771.0 530.0 L 771.0 529.0 L 769.0 527.0 L 767.0 523.0 L 764.0 520.0 L 764.0 519.0 L 762.0 517.0 L 760.0 513.0 L 757.0 510.0 L 755.0 506.0 L 752.0 503.0 L 750.0 499.0 L 747.0 496.0 L 745.0 492.0 L 742.0 489.0 Z M 39.0 489.0 L 39.0 620.0 L 129.0 620.0 L 129.0 596.0 L 66.0 596.0 L 65.0 595.0 L 65.0 566.0 L 66.0 565.0 L 121.0 565.0 L 121.0 542.0 L 66.0 542.0 L 65.0 541.0 L 65.0 513.0 L 66.0 512.0 L 128.0 512.0 L 128.0 489.0 Z M 80.0 176.0 L 79.0 177.0 L 74.0 177.0 L 73.0 178.0 L 68.0 179.0 L 60.0 183.0 L 50.0 191.0 L 50.0 192.0 L 47.0 195.0 L 47.0 196.0 L 43.0 201.0 L 42.0 203.0 L 42.0 205.0 L 40.0 208.0 L 40.0 211.0 L 39.0 212.0 L 39.0 216.0 L 38.0 217.0 L 38.0 229.0 L 39.0 230.0 L 39.0 235.0 L 40.0 236.0 L 40.0 239.0 L 46.0 251.0 L 50.0 255.0 L 50.0 256.0 L 58.0 263.0 L 59.0 263.0 L 61.0 265.0 L 67.0 268.0 L 69.0 268.0 L 73.0 270.0 L 77.0 270.0 L 78.0 271.0 L 92.0 271.0 L 93.0 270.0 L 97.0 270.0 L 98.0 269.0 L 100.0 269.0 L 101.0 268.0 L 103.0 268.0 L 107.0 266.0 L 109.0 264.0 L 113.0 262.0 L 121.0 254.0 L 121.0 253.0 L 124.0 250.0 L 128.0 242.0 L 128.0 240.0 L 130.0 236.0 L 130.0 232.0 L 131.0 231.0 L 131.0 216.0 L 130.0 215.0 L 130.0 211.0 L 129.0 210.0 L 128.0 205.0 L 125.0 199.0 L 120.0 193.0 L 120.0 192.0 L 115.0 187.0 L 114.0 187.0 L 108.0 182.0 L 102.0 179.0 L 97.0 178.0 L 96.0 177.0 L 93.0 177.0 L 92.0 176.0 Z M 956.0 177.0 L 948.0 177.0 L 947.0 176.0 L 945.0 177.0 L 939.0 177.0 L 938.0 178.0 L 935.0 178.0 L 934.0 179.0 L 929.0 180.0 L 923.0 183.0 L 921.0 185.0 L 920.0 185.0 L 912.0 192.0 L 912.0 193.0 L 907.0 199.0 L 903.0 207.0 L 903.0 209.0 L 902.0 210.0 L 902.0 213.0 L 901.0 214.0 L 901.0 219.0 L 900.0 220.0 L 900.0 228.0 L 901.0 229.0 L 901.0 235.0 L 902.0 236.0 L 902.0 239.0 L 903.0 240.0 L 903.0 242.0 L 905.0 246.0 L 907.0 248.0 L 908.0 251.0 L 910.0 253.0 L 910.0 254.0 L 918.0 262.0 L 919.0 262.0 L 922.0 265.0 L 930.0 269.0 L 932.0 269.0 L 933.0 270.0 L 936.0 270.0 L 937.0 271.0 L 955.0 271.0 L 956.0 270.0 L 960.0 270.0 L 961.0 269.0 L 963.0 269.0 L 973.0 264.0 L 977.0 260.0 L 978.0 260.0 L 986.0 251.0 L 991.0 241.0 L 991.0 239.0 L 992.0 238.0 L 992.0 235.0 L 993.0 234.0 L 993.0 229.0 L 994.0 228.0 L 994.0 220.0 L 993.0 219.0 L 993.0 214.0 L 992.0 213.0 L 992.0 210.0 L 991.0 209.0 L 991.0 207.0 L 987.0 199.0 L 985.0 197.0 L 985.0 196.0 L 975.0 186.0 L 974.0 186.0 L 971.0 183.0 L 965.0 180.0 L 963.0 180.0 L 960.0 178.0 L 957.0 178.0 Z M 453.0 528.0 L 445.0 532.0 L 443.0 534.0 L 442.0 534.0 L 432.0 544.0 L 432.0 545.0 L 430.0 547.0 L 427.0 553.0 L 427.0 555.0 L 425.0 559.0 L 425.0 563.0 L 424.0 564.0 L 424.0 583.0 L 425.0 584.0 L 425.0 587.0 L 426.0 588.0 L 426.0 591.0 L 428.0 594.0 L 428.0 596.0 L 430.0 598.0 L 431.0 601.0 L 434.0 604.0 L 434.0 605.0 L 442.0 613.0 L 443.0 613.0 L 445.0 615.0 L 453.0 619.0 L 455.0 619.0 L 456.0 620.0 L 459.0 620.0 L 460.0 621.0 L 464.0 621.0 L 465.0 622.0 L 481.0 622.0 L 482.0 621.0 L 487.0 621.0 L 488.0 620.0 L 491.0 620.0 L 492.0 619.0 L 494.0 619.0 L 504.0 614.0 L 510.0 609.0 L 510.0 607.0 L 507.0 603.0 L 507.0 602.0 L 504.0 599.0 L 504.0 598.0 L 502.0 596.0 L 500.0 592.0 L 498.0 592.0 L 495.0 595.0 L 487.0 599.0 L 485.0 599.0 L 484.0 600.0 L 481.0 600.0 L 480.0 601.0 L 469.0 601.0 L 468.0 600.0 L 466.0 600.0 L 465.0 599.0 L 463.0 599.0 L 461.0 598.0 L 459.0 596.0 L 458.0 596.0 L 453.0 591.0 L 451.0 587.0 L 451.0 585.0 L 450.0 584.0 L 450.0 581.0 L 451.0 580.0 L 513.0 580.0 L 514.0 579.0 L 514.0 566.0 L 513.0 565.0 L 513.0 559.0 L 512.0 558.0 L 512.0 555.0 L 510.0 552.0 L 510.0 550.0 L 507.0 544.0 L 505.0 542.0 L 505.0 541.0 L 497.0 533.0 L 496.0 533.0 L 494.0 531.0 L 490.0 529.0 L 488.0 529.0 L 487.0 528.0 L 485.0 528.0 L 481.0 526.0 L 477.0 526.0 L 476.0 525.0 L 465.0 525.0 L 464.0 526.0 L 459.0 526.0 L 458.0 527.0 Z M 874.0 529.0 L 870.0 531.0 L 865.0 535.0 L 864.0 535.0 L 857.0 542.0 L 857.0 543.0 L 855.0 545.0 L 855.0 546.0 L 853.0 548.0 L 851.0 552.0 L 851.0 554.0 L 850.0 555.0 L 850.0 557.0 L 848.0 561.0 L 848.0 566.0 L 847.0 567.0 L 847.0 580.0 L 848.0 581.0 L 848.0 585.0 L 849.0 586.0 L 849.0 589.0 L 850.0 590.0 L 850.0 592.0 L 851.0 593.0 L 851.0 595.0 L 853.0 599.0 L 858.0 605.0 L 858.0 606.0 L 864.0 612.0 L 865.0 612.0 L 870.0 616.0 L 874.0 618.0 L 876.0 618.0 L 877.0 619.0 L 879.0 619.0 L 883.0 621.0 L 887.0 621.0 L 888.0 622.0 L 905.0 622.0 L 906.0 621.0 L 910.0 621.0 L 911.0 620.0 L 914.0 620.0 L 915.0 619.0 L 920.0 618.0 L 924.0 616.0 L 926.0 614.0 L 929.0 613.0 L 934.0 608.0 L 933.0 606.0 L 930.0 603.0 L 930.0 602.0 L 928.0 600.0 L 928.0 599.0 L 926.0 597.0 L 926.0 596.0 L 923.0 592.0 L 920.0 593.0 L 915.0 597.0 L 911.0 599.0 L 909.0 599.0 L 908.0 600.0 L 904.0 600.0 L 903.0 601.0 L 893.0 601.0 L 892.0 600.0 L 889.0 600.0 L 883.0 597.0 L 876.0 590.0 L 874.0 586.0 L 873.0 581.0 L 874.0 580.0 L 937.0 580.0 L 937.0 562.0 L 936.0 561.0 L 936.0 557.0 L 935.0 556.0 L 934.0 551.0 L 931.0 545.0 L 929.0 543.0 L 929.0 542.0 L 920.0 533.0 L 908.0 527.0 L 905.0 527.0 L 904.0 526.0 L 900.0 526.0 L 899.0 525.0 L 888.0 525.0 L 887.0 526.0 L 883.0 526.0 L 882.0 527.0 L 880.0 527.0 L 879.0 528.0 Z M 78.0 290.0 L 79.0 292.0 L 79.0 294.0 L 80.0 295.0 L 80.0 297.0 L 83.0 302.0 L 83.0 304.0 L 89.0 316.0 L 93.0 321.0 L 94.0 324.0 L 96.0 326.0 L 96.0 327.0 L 98.0 329.0 L 100.0 333.0 L 107.0 341.0 L 107.0 342.0 L 118.0 353.0 L 118.0 354.0 L 121.0 357.0 L 122.0 357.0 L 130.0 365.0 L 131.0 365.0 L 138.0 371.0 L 139.0 371.0 L 141.0 373.0 L 142.0 373.0 L 153.0 381.0 L 169.0 389.0 L 171.0 389.0 L 176.0 392.0 L 178.0 392.0 L 181.0 394.0 L 183.0 394.0 L 184.0 395.0 L 186.0 395.0 L 187.0 396.0 L 189.0 396.0 L 193.0 398.0 L 200.0 399.0 L 204.0 401.0 L 208.0 401.0 L 209.0 402.0 L 213.0 402.0 L 214.0 403.0 L 218.0 403.0 L 219.0 404.0 L 224.0 404.0 L 224.0 401.0 L 225.0 400.0 L 225.0 394.0 L 226.0 393.0 L 226.0 387.0 L 227.0 386.0 L 227.0 379.0 L 228.0 378.0 L 228.0 373.0 L 227.0 372.0 L 222.0 372.0 L 221.0 371.0 L 218.0 371.0 L 217.0 370.0 L 210.0 369.0 L 206.0 367.0 L 203.0 367.0 L 202.0 366.0 L 200.0 366.0 L 199.0 365.0 L 194.0 364.0 L 186.0 360.0 L 184.0 360.0 L 172.0 354.0 L 170.0 352.0 L 167.0 351.0 L 165.0 349.0 L 161.0 347.0 L 158.0 344.0 L 154.0 342.0 L 150.0 338.0 L 149.0 338.0 L 133.0 322.0 L 133.0 321.0 L 128.0 316.0 L 128.0 315.0 L 125.0 312.0 L 125.0 311.0 L 119.0 303.0 L 110.0 285.0 L 108.0 286.0 L 106.0 286.0 L 105.0 287.0 L 103.0 287.0 L 102.0 288.0 L 99.0 288.0 L 98.0 289.0 L 94.0 289.0 L 93.0 290.0 Z M 817.0 43.0 L 817.0 45.0 L 816.0 46.0 L 816.0 52.0 L 815.0 53.0 L 815.0 59.0 L 814.0 60.0 L 814.0 66.0 L 813.0 67.0 L 813.0 72.0 L 812.0 73.0 L 814.0 75.0 L 818.0 75.0 L 819.0 76.0 L 822.0 76.0 L 823.0 77.0 L 827.0 77.0 L 828.0 78.0 L 831.0 78.0 L 832.0 79.0 L 837.0 80.0 L 840.0 82.0 L 845.0 83.0 L 848.0 85.0 L 850.0 85.0 L 862.0 91.0 L 864.0 93.0 L 870.0 96.0 L 872.0 98.0 L 876.0 100.0 L 879.0 103.0 L 880.0 103.0 L 897.0 119.0 L 897.0 120.0 L 902.0 125.0 L 902.0 126.0 L 908.0 133.0 L 909.0 136.0 L 913.0 141.0 L 919.0 153.0 L 919.0 155.0 L 921.0 158.0 L 921.0 160.0 L 923.0 163.0 L 925.0 162.0 L 927.0 162.0 L 928.0 161.0 L 930.0 161.0 L 931.0 160.0 L 934.0 160.0 L 935.0 159.0 L 940.0 159.0 L 941.0 158.0 L 955.0 158.0 L 954.0 156.0 L 954.0 154.0 L 952.0 151.0 L 951.0 146.0 L 949.0 143.0 L 949.0 141.0 L 946.0 136.0 L 946.0 134.0 L 942.0 126.0 L 940.0 124.0 L 939.0 121.0 L 937.0 119.0 L 936.0 116.0 L 931.0 110.0 L 931.0 109.0 L 928.0 106.0 L 928.0 105.0 L 925.0 102.0 L 925.0 101.0 L 905.0 81.0 L 904.0 81.0 L 899.0 76.0 L 895.0 74.0 L 889.0 69.0 L 886.0 68.0 L 884.0 66.0 L 881.0 65.0 L 879.0 63.0 L 863.0 55.0 L 861.0 55.0 L 858.0 53.0 L 856.0 53.0 L 855.0 52.0 L 853.0 52.0 L 852.0 51.0 L 850.0 51.0 L 849.0 50.0 L 847.0 50.0 L 846.0 49.0 L 844.0 49.0 L 840.0 47.0 L 837.0 47.0 L 836.0 46.0 L 833.0 46.0 L 832.0 45.0 L 828.0 45.0 L 827.0 44.0 L 822.0 44.0 L 821.0 43.0 Z M 228.0 532.0 L 227.0 532.0 L 225.0 530.0 L 219.0 527.0 L 216.0 527.0 L 215.0 526.0 L 211.0 526.0 L 210.0 525.0 L 202.0 525.0 L 201.0 526.0 L 196.0 526.0 L 195.0 527.0 L 193.0 527.0 L 192.0 528.0 L 190.0 528.0 L 186.0 530.0 L 183.0 533.0 L 182.0 533.0 L 178.0 537.0 L 177.0 539.0 L 176.0 538.0 L 176.0 527.0 L 151.0 527.0 L 151.0 620.0 L 176.0 620.0 L 176.0 565.0 L 177.0 564.0 L 177.0 561.0 L 178.0 560.0 L 178.0 558.0 L 180.0 556.0 L 180.0 555.0 L 187.0 549.0 L 189.0 549.0 L 190.0 548.0 L 193.0 548.0 L 194.0 547.0 L 201.0 547.0 L 202.0 548.0 L 207.0 549.0 L 213.0 555.0 L 214.0 557.0 L 214.0 559.0 L 215.0 560.0 L 215.0 564.0 L 216.0 565.0 L 216.0 618.0 L 215.0 619.0 L 216.0 620.0 L 240.0 620.0 L 241.0 619.0 L 241.0 557.0 L 240.0 556.0 L 240.0 551.0 L 239.0 550.0 L 239.0 548.0 L 238.0 547.0 L 238.0 545.0 L 236.0 541.0 L 234.0 539.0 L 234.0 538.0 Z M 651.0 525.0 L 650.0 526.0 L 645.0 526.0 L 644.0 527.0 L 641.0 527.0 L 640.0 528.0 L 638.0 528.0 L 630.0 532.0 L 623.0 539.0 L 623.0 540.0 L 620.0 544.0 L 620.0 546.0 L 619.0 547.0 L 619.0 551.0 L 618.0 552.0 L 618.0 556.0 L 619.0 557.0 L 619.0 562.0 L 623.0 570.0 L 630.0 576.0 L 636.0 579.0 L 641.0 580.0 L 642.0 581.0 L 645.0 581.0 L 649.0 583.0 L 653.0 583.0 L 654.0 584.0 L 657.0 584.0 L 658.0 585.0 L 661.0 585.0 L 662.0 586.0 L 664.0 586.0 L 668.0 589.0 L 669.0 591.0 L 669.0 595.0 L 668.0 597.0 L 664.0 600.0 L 653.0 602.0 L 652.0 601.0 L 646.0 601.0 L 645.0 600.0 L 642.0 600.0 L 639.0 598.0 L 637.0 598.0 L 633.0 596.0 L 628.0 592.0 L 626.0 592.0 L 623.0 596.0 L 623.0 597.0 L 621.0 599.0 L 621.0 600.0 L 619.0 602.0 L 616.0 609.0 L 617.0 609.0 L 620.0 612.0 L 621.0 612.0 L 626.0 616.0 L 630.0 618.0 L 635.0 619.0 L 636.0 620.0 L 639.0 620.0 L 640.0 621.0 L 646.0 621.0 L 647.0 622.0 L 662.0 622.0 L 663.0 621.0 L 668.0 621.0 L 669.0 620.0 L 672.0 620.0 L 673.0 619.0 L 675.0 619.0 L 681.0 616.0 L 685.0 612.0 L 687.0 611.0 L 687.0 610.0 L 690.0 607.0 L 692.0 603.0 L 692.0 601.0 L 693.0 600.0 L 693.0 597.0 L 694.0 596.0 L 694.0 587.0 L 693.0 586.0 L 693.0 583.0 L 689.0 575.0 L 686.0 572.0 L 685.0 572.0 L 680.0 568.0 L 678.0 568.0 L 672.0 565.0 L 669.0 565.0 L 668.0 564.0 L 665.0 564.0 L 664.0 563.0 L 660.0 563.0 L 659.0 562.0 L 652.0 561.0 L 646.0 558.0 L 644.0 556.0 L 644.0 554.0 L 643.0 553.0 L 644.0 552.0 L 644.0 550.0 L 647.0 547.0 L 649.0 546.0 L 652.0 546.0 L 653.0 545.0 L 661.0 545.0 L 662.0 546.0 L 666.0 546.0 L 667.0 547.0 L 672.0 548.0 L 674.0 550.0 L 677.0 551.0 L 681.0 554.0 L 683.0 550.0 L 685.0 548.0 L 690.0 538.0 L 690.0 535.0 L 689.0 535.0 L 687.0 533.0 L 679.0 529.0 L 677.0 529.0 L 673.0 527.0 L 669.0 527.0 L 668.0 526.0 L 662.0 526.0 L 661.0 525.0 Z M 555.0 526.0 L 554.0 527.0 L 552.0 527.0 L 551.0 528.0 L 549.0 528.0 L 548.0 529.0 L 546.0 529.0 L 544.0 530.0 L 538.0 535.0 L 537.0 535.0 L 533.0 540.0 L 530.0 546.0 L 530.0 549.0 L 529.0 550.0 L 529.0 559.0 L 530.0 560.0 L 530.0 563.0 L 531.0 564.0 L 531.0 566.0 L 533.0 568.0 L 533.0 569.0 L 539.0 575.0 L 547.0 579.0 L 549.0 579.0 L 552.0 581.0 L 555.0 581.0 L 556.0 582.0 L 559.0 582.0 L 560.0 583.0 L 563.0 583.0 L 564.0 584.0 L 567.0 584.0 L 568.0 585.0 L 571.0 585.0 L 572.0 586.0 L 574.0 586.0 L 578.0 590.0 L 579.0 592.0 L 579.0 595.0 L 576.0 599.0 L 572.0 601.0 L 568.0 601.0 L 567.0 602.0 L 562.0 602.0 L 561.0 601.0 L 556.0 601.0 L 555.0 600.0 L 552.0 600.0 L 549.0 598.0 L 547.0 598.0 L 545.0 596.0 L 542.0 595.0 L 537.0 591.0 L 534.0 595.0 L 534.0 596.0 L 532.0 598.0 L 532.0 599.0 L 530.0 601.0 L 527.0 607.0 L 527.0 609.0 L 533.0 614.0 L 543.0 619.0 L 546.0 619.0 L 547.0 620.0 L 550.0 620.0 L 551.0 621.0 L 557.0 621.0 L 558.0 622.0 L 574.0 622.0 L 575.0 621.0 L 579.0 621.0 L 580.0 620.0 L 585.0 619.0 L 591.0 616.0 L 593.0 614.0 L 594.0 614.0 L 599.0 609.0 L 599.0 608.0 L 601.0 606.0 L 602.0 604.0 L 602.0 602.0 L 603.0 601.0 L 603.0 599.0 L 604.0 598.0 L 604.0 585.0 L 603.0 584.0 L 603.0 582.0 L 600.0 576.0 L 595.0 571.0 L 594.0 571.0 L 592.0 569.0 L 588.0 567.0 L 586.0 567.0 L 585.0 566.0 L 580.0 565.0 L 579.0 564.0 L 576.0 564.0 L 575.0 563.0 L 571.0 563.0 L 570.0 562.0 L 567.0 562.0 L 566.0 561.0 L 563.0 561.0 L 562.0 560.0 L 560.0 560.0 L 558.0 559.0 L 554.0 555.0 L 554.0 551.0 L 555.0 549.0 L 559.0 546.0 L 562.0 546.0 L 563.0 545.0 L 573.0 545.0 L 574.0 546.0 L 577.0 546.0 L 578.0 547.0 L 580.0 547.0 L 586.0 550.0 L 588.0 552.0 L 590.0 553.0 L 592.0 553.0 L 597.0 543.0 L 599.0 541.0 L 601.0 536.0 L 599.0 534.0 L 589.0 529.0 L 587.0 529.0 L 583.0 527.0 L 580.0 527.0 L 579.0 526.0 L 573.0 526.0 L 572.0 525.0 L 562.0 525.0 L 561.0 526.0 Z M 962.0 500.0 L 960.0 501.0 L 960.0 526.0 L 959.0 527.0 L 945.0 527.0 L 945.0 547.0 L 946.0 548.0 L 960.0 548.0 L 961.0 549.0 L 960.0 550.0 L 960.0 575.0 L 961.0 576.0 L 960.0 577.0 L 960.0 585.0 L 961.0 586.0 L 961.0 599.0 L 962.0 600.0 L 962.0 603.0 L 965.0 609.0 L 972.0 616.0 L 973.0 616.0 L 977.0 619.0 L 979.0 619.0 L 983.0 621.0 L 990.0 621.0 L 991.0 622.0 L 995.0 622.0 L 996.0 621.0 L 1004.0 621.0 L 1005.0 620.0 L 1008.0 620.0 L 1008.0 598.0 L 1006.0 599.0 L 1003.0 599.0 L 1002.0 600.0 L 995.0 600.0 L 991.0 598.0 L 988.0 595.0 L 986.0 591.0 L 986.0 549.0 L 987.0 548.0 L 1008.0 548.0 L 1008.0 527.0 L 987.0 527.0 L 986.0 526.0 L 986.0 501.0 L 985.0 500.0 L 965.0 500.0 L 964.0 501.0 Z M 381.0 487.0 L 380.0 488.0 L 380.0 619.0 L 381.0 620.0 L 405.0 620.0 L 406.0 619.0 L 406.0 488.0 L 405.0 487.0 Z M 82.0 197.0 L 87.0 197.0 L 88.0 198.0 L 92.0 198.0 L 100.0 202.0 L 105.0 207.0 L 105.0 208.0 L 109.0 213.0 L 109.0 215.0 L 111.0 219.0 L 111.0 227.0 L 110.0 228.0 L 110.0 232.0 L 107.0 238.0 L 100.0 245.0 L 99.0 245.0 L 97.0 247.0 L 95.0 248.0 L 93.0 248.0 L 92.0 249.0 L 89.0 249.0 L 88.0 250.0 L 81.0 250.0 L 80.0 249.0 L 77.0 249.0 L 71.0 246.0 L 69.0 244.0 L 68.0 244.0 L 62.0 237.0 L 60.0 233.0 L 60.0 230.0 L 59.0 229.0 L 59.0 218.0 L 65.0 206.0 L 71.0 201.0 L 75.0 199.0 L 77.0 199.0 L 78.0 198.0 L 81.0 198.0 Z M 941.0 198.0 L 952.0 198.0 L 953.0 199.0 L 958.0 200.0 L 960.0 202.0 L 961.0 202.0 L 969.0 210.0 L 972.0 216.0 L 972.0 219.0 L 973.0 220.0 L 973.0 228.0 L 972.0 229.0 L 972.0 232.0 L 969.0 238.0 L 967.0 240.0 L 967.0 241.0 L 961.0 246.0 L 955.0 249.0 L 952.0 249.0 L 951.0 250.0 L 942.0 250.0 L 941.0 249.0 L 938.0 249.0 L 932.0 246.0 L 925.0 239.0 L 922.0 233.0 L 922.0 231.0 L 921.0 230.0 L 921.0 218.0 L 922.0 217.0 L 922.0 215.0 L 924.0 211.0 L 926.0 209.0 L 926.0 208.0 L 931.0 203.0 Z M 304.0 547.0 L 312.0 547.0 L 313.0 548.0 L 316.0 548.0 L 320.0 550.0 L 322.0 552.0 L 323.0 552.0 L 329.0 559.0 L 329.0 561.0 L 331.0 564.0 L 331.0 567.0 L 332.0 568.0 L 332.0 578.0 L 331.0 579.0 L 331.0 583.0 L 328.0 589.0 L 320.0 597.0 L 316.0 599.0 L 313.0 599.0 L 312.0 600.0 L 303.0 600.0 L 302.0 599.0 L 300.0 599.0 L 294.0 596.0 L 289.0 591.0 L 289.0 590.0 L 287.0 588.0 L 286.0 586.0 L 286.0 584.0 L 285.0 583.0 L 285.0 581.0 L 284.0 580.0 L 284.0 567.0 L 285.0 566.0 L 285.0 564.0 L 286.0 563.0 L 286.0 561.0 L 287.0 559.0 L 289.0 557.0 L 289.0 556.0 L 294.0 551.0 L 300.0 548.0 L 303.0 548.0 Z M 705.0 54.0 L 703.0 55.0 L 701.0 55.0 L 700.0 56.0 L 698.0 56.0 L 695.0 58.0 L 693.0 58.0 L 685.0 62.0 L 683.0 62.0 L 667.0 70.0 L 667.0 72.0 L 680.0 97.0 L 688.0 93.0 L 690.0 93.0 L 695.0 90.0 L 697.0 90.0 L 702.0 87.0 L 704.0 87.0 L 705.0 86.0 L 707.0 86.0 L 710.0 84.0 L 712.0 84.0 L 714.0 83.0 L 714.0 81.0 L 713.0 80.0 L 713.0 77.0 L 712.0 76.0 L 712.0 74.0 L 711.0 73.0 L 711.0 71.0 L 710.0 70.0 L 710.0 68.0 L 709.0 67.0 L 709.0 65.0 L 708.0 64.0 L 708.0 62.0 L 707.0 61.0 L 707.0 59.0 L 706.0 58.0 L 706.0 56.0 Z M 782.0 41.0 L 766.0 41.0 L 765.0 42.0 L 756.0 42.0 L 755.0 43.0 L 748.0 43.0 L 747.0 44.0 L 742.0 44.0 L 741.0 45.0 L 741.0 48.0 L 742.0 49.0 L 742.0 55.0 L 743.0 56.0 L 743.0 62.0 L 744.0 63.0 L 744.0 68.0 L 745.0 69.0 L 745.0 74.0 L 746.0 75.0 L 748.0 75.0 L 749.0 74.0 L 755.0 74.0 L 756.0 73.0 L 764.0 73.0 L 765.0 72.0 L 781.0 72.0 L 781.0 68.0 L 782.0 67.0 Z M 294.0 372.0 L 291.0 372.0 L 290.0 373.0 L 285.0 373.0 L 284.0 374.0 L 275.0 374.0 L 274.0 375.0 L 259.0 375.0 L 258.0 376.0 L 258.0 392.0 L 259.0 393.0 L 259.0 406.0 L 276.0 406.0 L 277.0 405.0 L 284.0 405.0 L 285.0 404.0 L 291.0 404.0 L 292.0 403.0 L 297.0 403.0 L 299.0 402.0 L 299.0 398.0 L 298.0 397.0 L 298.0 393.0 L 297.0 392.0 L 297.0 387.0 L 296.0 386.0 L 296.0 381.0 L 295.0 380.0 L 295.0 375.0 L 294.0 374.0 Z M 359.0 350.0 L 357.0 350.0 L 339.0 359.0 L 337.0 359.0 L 334.0 361.0 L 332.0 361.0 L 331.0 362.0 L 329.0 362.0 L 325.0 364.0 L 326.0 366.0 L 326.0 368.0 L 328.0 371.0 L 328.0 374.0 L 329.0 375.0 L 329.0 377.0 L 330.0 378.0 L 330.0 380.0 L 331.0 381.0 L 331.0 383.0 L 332.0 384.0 L 332.0 386.0 L 333.0 387.0 L 334.0 392.0 L 337.0 392.0 L 338.0 391.0 L 343.0 390.0 L 348.0 387.0 L 350.0 387.0 L 353.0 385.0 L 355.0 385.0 L 372.0 376.0 L 372.0 374.0 L 370.0 370.0 L 368.0 368.0 L 367.0 366.0 L 367.0 364.0 L 365.0 360.0 L 363.0 358.0 Z M 635.0 89.0 L 634.0 89.0 L 632.0 91.0 L 628.0 93.0 L 625.0 96.0 L 624.0 96.0 L 603.0 114.0 L 606.0 117.0 L 606.0 118.0 L 613.0 125.0 L 613.0 126.0 L 621.0 134.0 L 622.0 136.0 L 624.0 136.0 L 630.0 130.0 L 631.0 130.0 L 635.0 126.0 L 636.0 126.0 L 640.0 122.0 L 641.0 122.0 L 644.0 119.0 L 645.0 119.0 L 651.0 114.0 L 651.0 112.0 L 649.0 110.0 L 649.0 109.0 L 647.0 107.0 L 647.0 106.0 L 645.0 104.0 L 645.0 103.0 L 643.0 101.0 L 643.0 100.0 Z M 415.0 310.0 L 414.0 310.0 L 411.0 313.0 L 410.0 313.0 L 404.0 319.0 L 403.0 319.0 L 399.0 323.0 L 398.0 323.0 L 394.0 327.0 L 393.0 327.0 L 386.0 333.0 L 388.0 335.0 L 390.0 339.0 L 393.0 342.0 L 393.0 343.0 L 395.0 345.0 L 395.0 346.0 L 403.0 357.0 L 407.0 355.0 L 410.0 352.0 L 411.0 352.0 L 414.0 349.0 L 415.0 349.0 L 419.0 345.0 L 420.0 345.0 L 434.0 332.0 L 434.0 331.0 L 426.0 323.0 L 426.0 322.0 L 417.0 313.0 L 417.0 312.0 Z M 450.0 563.0 L 450.0 561.0 L 451.0 560.0 L 451.0 558.0 L 453.0 554.0 L 459.0 548.0 L 463.0 546.0 L 465.0 546.0 L 466.0 545.0 L 474.0 545.0 L 475.0 546.0 L 478.0 546.0 L 482.0 549.0 L 483.0 549.0 L 488.0 555.0 L 488.0 557.0 L 489.0 558.0 L 489.0 561.0 L 490.0 562.0 L 489.0 563.0 L 481.0 563.0 L 480.0 564.0 L 469.0 564.0 L 468.0 563.0 L 462.0 563.0 L 461.0 564.0 L 451.0 564.0 Z M 873.0 561.0 L 874.0 560.0 L 874.0 558.0 L 876.0 554.0 L 881.0 549.0 L 882.0 549.0 L 884.0 547.0 L 886.0 547.0 L 890.0 545.0 L 897.0 545.0 L 898.0 546.0 L 901.0 546.0 L 905.0 548.0 L 909.0 552.0 L 909.0 553.0 L 912.0 557.0 L 912.0 560.0 L 913.0 561.0 L 913.0 563.0 L 912.0 564.0 L 911.0 563.0 L 910.0 564.0 L 903.0 564.0 L 902.0 563.0 L 897.0 563.0 L 896.0 564.0 L 891.0 564.0 L 890.0 563.0 L 878.0 563.0 L 877.0 564.0 L 874.0 564.0 L 873.0 563.0 Z" fill="#000000" fill-rule="evenodd"/>
  </g>
</svg>
