<?xml version="1.0" encoding="UTF-8" standalone="no"?>
<svg
   width="1180"
   height="240"
   viewBox="0 0 1180 240"
   role="img"
   aria-labelledby="title desc"
   version="1.1"
   id="svg10"
   xmlns="http://www.w3.org/2000/svg"
   xmlns:svg="http://www.w3.org/2000/svg">
  <title
     id="title">EndlessNet horizontal logo — white</title>
  <desc
     id="desc">EndlessNet private networking logo</desc>
  <defs
     id="defs1">
    <mask
       id="h-white-underpass"
       maskUnits="userSpaceOnUse"
       x="0"
       y="0"
       width="420"
       height="200">
      <rect
         x="0"
         y="0"
         width="420"
         height="200"
         fill="white"
         id="rect1" />
      <path
         d="M108 20 C157 20 184 69 210 100 C236 131 263 180 312 180"
         fill="none"
         stroke="black"
         stroke-width="38"
         stroke-linecap="round"
         stroke-linejoin="round"
         id="path1" />
    </mask>
  </defs>
  <g
     transform="translate(20 20) scale(0.90)"
     id="g9">
    <g
       id="g8">
      <path
         d="M22 100 C22 50 62 20 108 20 C157 20 184 69 210 100 C236 131 263 180 312 180 C358 180 398 150 398 100 C398 50 358 20 312 20 C263 20 236 69 210 100 C184 131 157 180 108 180 C62 180 22 150 22 100"
         fill="none"
         stroke="#FFFFFF"
         stroke-width="28"
         stroke-linecap="round"
         stroke-linejoin="round"
         mask="url(#h-white-underpass)"
         id="path2" />
      <path
         d="M108 20 C157 20 184 69 210 100 C236 131 263 180 312 180"
         fill="none"
         stroke="#FFFFFF"
         stroke-width="28"
         stroke-linecap="round"
         stroke-linejoin="round"
         id="path3" />
      <g
         fill="none"
         stroke="#FFFFFF"
         stroke-width="5.5"
         stroke-linecap="round"
         stroke-linejoin="round"
         id="g7">
        <path
           d="M34 100 H74 L104 126 H148"
           id="path4" />
        <circle
           cx="74"
           cy="100"
           r="10"
           id="circle4" />
        <circle
           cx="104"
           cy="126"
           r="9"
           id="circle5" />
        <path
           d="M258 126 H286 L316 100 H386"
           id="path5" />
        <circle
           cx="286"
           cy="126"
           r="9"
           id="circle6" />
        <circle
           cx="316"
           cy="100"
           r="10"
           id="circle7" />
      </g>
      <path
         d="M149 115 L161 126 L149 137 L137 126 Z"
         fill="#FFFFFF"
         id="path7" />
    </g>
  </g>
  <g
     id="text10"
     style="font-weight:500;font-size:112px;font-family:'Inter Display', Inter, Arial, sans-serif;letter-spacing:-3"
     aria-label="EndlessNet">
    <path
       style="fill:#ffffff"
       d="m 432.4375,158 h 54.79687 V 147.33594 H 444.57812 V 121.74219 H 484.0625 V 111.1875 H 444.57812 V 87.179687 h 42.65625 V 76.515625 H 432.4375 Z M 506,124.75 c 0,-10.71875 6.07031,-15.3125 13.94531,-15.3125 7.98438,0 12.63281,4.75781 12.63281,14 V 158 h 11.53907 v -35.98437 c 0,-15.09375 -9.02344,-22.914068 -20.89063,-22.914068 -7.60156,0 -13.50781,3.281248 -17.44531,9.843748 V 100.25 H 494.46094 V 158 H 506 Z m 70.33594,34.39844 c 7.54687,0 14,-3.22657 17.88281,-9.95313 h 0.10937 V 158 h 11.32032 V 76.515625 H 594.10937 V 108.61719 H 594 c -3.71875,-6.39844 -10.22656,-9.515628 -17.71875,-9.515628 -14.92969,0 -24.99219,12.195318 -24.99219,30.023438 0,17.88281 10.00781,30.02344 25.04688,30.02344 z m 2.35156,-9.95313 c -9.29688,0 -15.69531,-7.05469 -15.69531,-20.07031 0,-13.07031 6.39843,-20.125 15.69531,-20.125 9.84375,0 16.1875,7.98438 16.1875,20.125 0,12.14062 -6.34375,20.07031 -16.1875,20.07031 z M 627.20312,76.515625 H 615.66406 V 158 h 11.53906 z m 34.67969,82.796875 c 13.07031,0 23.35156,-7.71094 25.48438,-18.86719 h -11.10157 c -1.64062,5.46875 -6.67187,9.24219 -14.21875,9.24219 -10.11718,0 -15.91406,-7.05469 -16.29687,-17.44531 h 42.49219 V 129.125 c 0,-17.82812 -10.60938,-30.1875 -26.96094,-30.1875 -15.75,0 -26.90625,12.6875 -26.90625,30.29687 0,17.44532 10.39062,30.07813 27.50781,30.07813 z m -16.02344,-35.82031 c 0.98438,-9.1875 6.83594,-14.92969 15.53125,-14.92969 8.75,0 14.65625,5.74219 15.58594,14.92969 z m 70.71875,35.875 c 13.45313,0 23.29688,-6.78125 23.29688,-17.77344 0,-8.36719 -5.14063,-13.39844 -16.40625,-15.91406 l -9.84375,-2.1875 c -5.19531,-1.20313 -8.3125,-3.55469 -8.3125,-7.4375 0,-4.42969 4.15625,-7.92969 10.71875,-7.92969 6.83594,0 11.32031,4.10156 11.42969,9.73438 h 11.04687 c -0.32812,-11.64844 -9.625,-18.867193 -22.64062,-18.867193 -13.23438,0 -22.09375,7.054693 -22.09375,17.281253 0,8.58594 5.6875,14.10937 16.57031,16.51562 l 9.57031,2.13281 c 4.97656,1.09375 8.3125,3.39063 8.3125,7.32813 0,4.59375 -4.53906,7.92969 -11.86719,7.92969 -7.49218,0 -11.86718,-3.5 -12.52343,-9.73438 h -11.375 c 0.82031,12.52344 10.88281,18.92188 24.11718,18.92188 z m 51.85157,0 c 13.45312,0 23.29687,-6.78125 23.29687,-17.77344 0,-8.36719 -5.14062,-13.39844 -16.40625,-15.91406 l -9.84375,-2.1875 c -5.19531,-1.20313 -8.3125,-3.55469 -8.3125,-7.4375 0,-4.42969 4.15625,-7.92969 10.71875,-7.92969 6.83594,0 11.32031,4.10156 11.42969,9.73438 h 11.04687 c -0.32812,-11.64844 -9.625,-18.867193 -22.64062,-18.867193 -13.23438,0 -22.09375,7.054693 -22.09375,17.281253 0,8.58594 5.6875,14.10937 16.57031,16.51562 l 9.57031,2.13281 c 4.97657,1.09375 8.3125,3.39063 8.3125,7.32813 0,4.59375 -4.53906,7.92969 -11.86718,7.92969 -7.49219,0 -11.86719,-3.5 -12.52344,-9.73438 h -11.375 c 0.82031,12.52344 10.88281,18.92188 24.11719,18.92188 z"
       id="path10" />
    <path
       style="fill:#ffffff"
       d="m 799.82812,158 h 12.14063 v -44.07812 c 0,-3.60938 -0.0547,-10.66407 -0.4375,-20.23438 5.41406,9.29688 9.84375,16.67969 12.14062,20.28906 L 851.50781,158 h 13.5625 V 76.515625 H 852.875 v 48.507815 c 0,2.95312 0.10937,9.89843 0.32812,15.80468 -3.28125,-5.79687 -6.89062,-11.97656 -8.80468,-15.03906 L 813.28125,76.515625 h -13.45313 z m 100.79688,1.3125 c 13.07031,0 23.35156,-7.71094 25.48437,-18.86719 h -11.10156 c -1.64062,5.46875 -6.67187,9.24219 -14.21875,9.24219 -10.11719,0 -15.91406,-7.05469 -16.29687,-17.44531 h 42.49218 V 129.125 c 0,-17.82812 -10.60937,-30.1875 -26.96093,-30.1875 -15.75,0 -26.90625,12.6875 -26.90625,30.29687 0,17.44532 10.39062,30.07813 27.50781,30.07813 z m -16.02344,-35.82031 c 0.98438,-9.1875 6.83594,-14.92969 15.53125,-14.92969 8.75,0 14.65625,5.74219 15.58594,14.92969 z M 961.77344,100.25 H 950.07031 V 84.5 h -11.59375 v 15.75 h -10.17187 v 9.51563 h 10.17187 v 34.45312 C 938.47656,153.51562 943.67187,158 954.5,158 h 7.27344 v -9.51563 h -5.63282 c -4.59375,0 -6.07031,-1.47656 -6.07031,-5.74218 v -32.97656 h 11.70313 z"
       id="path11" />
  </g>
</svg>
